<?xml version="1.0" standalone="no"?>
<!DOCTYPE svg PUBLIC "-//W3C//DTD SVG 20010904//EN"
 "http://www.w3.org/TR/2001/REC-SVG-20010904/DTD/svg10.dtd">
<svg version="1.0" xmlns="http://www.w3.org/2000/svg"
 width="1024.000000pt" height="1024.000000pt" viewBox="0 0 1024.000000 1024.000000"
 preserveAspectRatio="xMidYMid meet">

<g transform="translate(0.000000,1024.000000) scale(0.100000,-0.100000)"
fill="#000000" stroke="none">
<path d="M3512 8675 c-35 -8 -70 -19 -78 -26 -22 -18 -17 -155 11 -294 86
-427 316 -764 647 -949 222 -124 587 -161 798 -82 11 4 27 -16 57 -72 34 -64
123 -256 123 -266 0 -1 -102 -6 -227 -9 -500 -14 -872 -86 -1135 -218 -394
-198 -643 -535 -777 -1055 -10 -38 -14 -42 -52 -48 -92 -15 -162 -67 -214
-161 -47 -84 -73 -187 -87 -343 -14 -156 -1 -340 33 -469 43 -164 140 -290
257 -333 l57 -21 38 -117 c71 -218 156 -362 301 -508 186 -187 404 -291 761
-363 263 -53 598 -81 967 -81 708 0 1260 101 1572 288 99 59 233 185 308 288
78 108 148 252 189 385 33 108 35 112 74 131 22 11 59 35 81 54 l41 33 -23
-57 c-59 -148 -79 -460 -40 -642 20 -97 70 -232 91 -250 13 -11 9 -20 -25 -62
-22 -28 -40 -54 -40 -57 0 -16 27 -40 52 -46 24 -6 31 -1 70 54 49 69 53 70
181 50 57 -9 80 -18 112 -45 50 -41 141 -86 220 -110 45 -14 91 -18 180 -18
102 1 131 5 193 27 187 67 348 219 448 423 21 44 24 56 14 74 -17 31 -157 94
-292 132 l-113 32 29 30 c73 78 132 202 163 346 27 126 25 395 -5 550 -43 230
-126 473 -169 493 -56 25 -298 -77 -473 -201 -115 -81 -287 -250 -360 -352
-29 -42 -50 -64 -46 -50 35 133 34 439 -2 572 -52 193 -148 303 -283 326 l-41
7 -19 75 c-66 259 -184 497 -338 681 -130 155 -253 250 -446 345 -242 119
-522 179 -937 202 -76 5 -140 11 -144 14 -3 4 20 56 52 117 59 115 70 125 115
100 36 -19 189 -29 277 -18 369 45 611 332 662 784 13 124 6 138 -77 156 -100
21 -304 16 -408 -10 -410 -104 -660 -430 -596 -779 l13 -67 -46 -80 c-26 -44
-49 -88 -52 -97 -9 -28 -20 -21 -32 20 -7 21 -41 94 -76 163 l-64 125 21 59
c30 87 29 266 -2 390 -27 108 -94 254 -156 340 -184 258 -527 449 -887 495
-116 14 -370 11 -446 -5z m536 -114 c256 -55 449 -156 612 -321 102 -104 170
-212 216 -347 43 -128 57 -232 44 -325 -6 -40 -12 -73 -14 -75 -2 -2 -35 34
-74 79 -131 153 -344 353 -497 464 -142 104 -317 194 -375 194 -37 0 -20 -18
68 -71 137 -82 232 -148 301 -208 l65 -56 -126 -17 c-236 -32 -272 -75 -47
-58 74 5 160 10 193 10 l58 0 123 -122 c144 -145 261 -288 243 -299 -31 -19
-160 -31 -278 -26 -140 5 -254 33 -370 90 -269 133 -487 396 -594 717 -39 117
-76 287 -76 348 0 41 0 41 43 45 104 11 393 -2 485 -22z m2122 -529 l55 -7 -3
-40 c-7 -92 -54 -252 -103 -353 -117 -242 -336 -374 -589 -359 -156 10 -156 2
10 171 79 81 197 188 262 239 65 51 118 98 118 105 0 18 -5 16 -93 -30 -95
-51 -243 -168 -385 -306 -71 -68 -105 -95 -109 -85 -3 7 -4 56 -1 107 3 84 8
102 42 171 24 49 62 102 103 146 177 188 422 273 693 241z m-855 -1162 c649
-39 996 -159 1280 -444 196 -196 341 -491 410 -830 52 -254 73 -570 55 -813
-28 -395 -122 -690 -290 -910 -218 -289 -528 -416 -1190 -490 -200 -22 -901
-25 -1115 -5 -378 36 -662 105 -871 210 -418 211 -635 681 -636 1382 -1 956
342 1570 994 1779 322 103 862 150 1363 121z m1854 -1319 c105 -54 160 -179
182 -408 22 -244 -27 -498 -119 -608 -24 -29 -91 -84 -103 -85 -3 0 0 30 7 68
22 120 37 388 30 563 -6 156 -27 383 -42 457 -8 38 -5 38 45 13z m-4273 -18
c-51 -244 -54 -825 -6 -1045 9 -43 6 -45 -34 -19 -68 45 -134 162 -162 288
-24 106 -30 369 -10 480 27 158 85 270 157 306 50 24 62 22 55 -10z m5386
-343 c40 -100 93 -312 108 -434 17 -131 8 -335 -20 -446 -29 -119 -80 -219
-148 -291 -56 -60 -58 -61 -139 -75 -222 -38 -388 -166 -497 -383 l-28 -53
-51 6 c-28 4 -53 9 -55 10 -1 2 44 73 100 157 57 85 141 222 187 304 46 83 91
160 100 173 10 15 67 45 154 82 181 77 286 140 233 140 -7 0 -84 -27 -170 -60
-87 -33 -159 -60 -161 -60 -3 0 16 44 41 98 67 142 140 327 169 427 27 94 30
115 16 115 -11 0 -20 -19 -116 -250 -42 -102 -83 -196 -91 -210 l-13 -25 -1
29 c0 47 -41 208 -64 255 -35 71 -46 63 -30 -21 62 -324 63 -320 -49 -519
-118 -212 -112 -205 -126 -138 -33 156 -105 379 -123 379 -15 0 -3 -69 42
-245 21 -82 41 -173 45 -202 7 -50 5 -54 -53 -146 -57 -91 -169 -247 -178
-247 -9 0 -43 80 -63 145 -68 231 -40 533 73 770 137 288 378 542 671 705 70
39 186 89 199 86 5 -1 22 -35 38 -76z m83 -1360 c100 -32 215 -81 215 -92 0
-6 -21 -42 -47 -81 -94 -138 -229 -249 -353 -288 -148 -46 -359 -11 -480 81
-30 23 -40 19 149 54 246 47 491 127 491 161 0 11 -15 9 -67 -6 -162 -47 -610
-145 -620 -135 -4 3 49 79 91 129 68 83 205 175 293 197 66 16 250 5 328 -20z"/>
<path d="M4913 6595 c-178 -39 -315 -191 -343 -382 -37 -241 132 -468 373
-502 364 -51 633 315 472 644 -44 91 -111 159 -200 201 -111 54 -189 63 -302
39z m262 -90 c154 -74 245 -240 218 -398 -29 -172 -169 -316 -325 -336 -169
-21 -333 70 -406 227 -24 50 -27 69 -27 157 0 83 4 108 23 149 45 98 119 170
219 212 50 21 70 24 148 21 74 -3 101 -8 150 -32z"/>
<path d="M5085 6366 c-151 -37 -247 -140 -247 -265 -1 -134 7 -196 22 -196 9
0 19 15 24 36 l9 36 67 -5 c40 -3 82 1 105 8 54 18 121 83 142 138 24 63 24
185 0 230 -20 36 -37 39 -122 18z m72 -12 c-3 -3 -12 -4 -19 -1 -8 3 -5 6 6 6
11 1 17 -2 13 -5z m25 -59 c12 -42 1 -129 -21 -173 -42 -82 -138 -132 -205
-106 -20 8 -20 23 1 46 11 13 30 18 65 18 36 0 48 4 48 15 0 10 -11 15 -35 15
-19 0 -35 4 -35 8 0 4 23 25 50 46 28 21 50 42 50 46 0 14 -44 -2 -82 -30 -40
-29 -118 -121 -118 -139 0 -6 -4 -11 -10 -11 -18 0 -11 108 9 148 46 91 145
153 235 149 35 -2 41 -6 48 -32z m25 -17 c-3 -8 -6 -5 -6 6 -1 11 2 17 5 13 3
-3 4 -12 1 -19z m-345 -350 c-8 -8 -9 -4 -5 13 4 13 8 18 11 10 2 -7 -1 -18
-6 -23z"/>
<path d="M5510 5949 c0 -5 5 -7 10 -4 6 3 10 8 10 11 0 2 -4 4 -10 4 -5 0 -10
-5 -10 -11z"/>
<path d="M4168 5933 c6 -2 18 -2 25 0 6 3 1 5 -13 5 -14 0 -19 -2 -12 -5z"/>
<path d="M5808 5933 c7 -3 16 -2 19 1 4 3 -2 6 -13 5 -11 0 -14 -3 -6 -6z"/>
<path d="M4098 5923 c7 -3 16 -2 19 1 4 3 -2 6 -13 5 -11 0 -14 -3 -6 -6z"/>
<path d="M5888 5923 c7 -3 16 -2 19 1 4 3 -2 6 -13 5 -11 0 -14 -3 -6 -6z"/>
<path d="M4038 5913 c7 -3 16 -2 19 1 4 3 -2 6 -13 5 -11 0 -14 -3 -6 -6z"/>
<path d="M5395 5776 c-201 -204 -524 -216 -739 -28 l-56 49 -108 -3 c-307 -10
-418 -21 -560 -55 -306 -75 -483 -246 -557 -542 -78 -309 -48 -702 71 -940
140 -281 353 -415 774 -487 168 -29 305 -40 575 -49 532 -18 1036 27 1295 116
332 114 512 338 576 718 23 136 23 389 1 514 -61 335 -205 530 -467 631 -130
50 -382 90 -567 90 -48 0 -111 3 -140 6 -47 6 -51 9 -42 25 13 26 12 25 -56
-45z m-1123 -713 c101 -45 188 -158 188 -244 0 -53 -22 -79 -67 -79 -31 0 -35
4 -57 53 -26 57 -75 110 -119 126 -16 6 -54 11 -85 11 -91 0 -142 -38 -217
-162 -26 -43 -57 -47 -91 -13 -23 23 -25 32 -20 67 18 110 118 220 236 259 45
15 181 4 232 -18z m1761 -7 c139 -67 224 -250 145 -309 -38 -29 -70 -12 -98
50 -41 94 -97 133 -190 133 -98 0 -151 -35 -205 -137 -29 -54 -52 -68 -91 -53
-90 35 -20 218 114 302 91 56 228 62 325 14z m-1233 -597 c64 -51 122 -70 213
-70 99 0 173 24 233 75 54 46 75 51 107 25 88 -69 -44 -197 -243 -236 -70 -14
-95 -15 -163 -5 -142 21 -287 109 -287 174 0 38 16 67 43 77 25 10 45 1 97
-40z"/>
<path d="M3594 5764 c-18 -14 -18 -15 4 -4 12 6 22 13 22 15 0 8 -5 6 -26 -11z"/>
<path d="M6460 5726 c0 -2 8 -10 18 -17 15 -13 16 -12 3 4 -13 16 -21 21 -21
13z"/>
<path d="M3509 5703 c-13 -16 -12 -17 4 -4 16 13 21 21 13 21 -2 0 -10 -8 -17
-17z"/>
<path d="M6555 5640 c27 -27 51 -50 54 -50 3 0 -17 23 -44 50 -27 28 -51 50
-54 50 -3 0 17 -22 44 -50z"/>
<path d="M3439 5643 l-34 -38 38 34 c20 19 37 36 37 38 0 8 -8 0 -41 -34z"/>
<path d="M3379 5573 c-13 -16 -12 -17 4 -4 16 13 21 21 13 21 -2 0 -10 -8 -17
-17z"/>
<path d="M6610 5576 c0 -2 8 -10 18 -17 15 -13 16 -12 3 4 -13 16 -21 21 -21
13z"/>
<path d="M6707 5425 c9 -19 18 -33 21 -31 4 5 -26 66 -33 66 -3 0 3 -16 12
-35z"/>
<path d="M3201 5094 c0 -11 3 -14 6 -6 3 7 2 16 -1 19 -3 4 -6 -2 -5 -13z"/>
<path d="M6812 5060 c0 -14 2 -19 5 -12 2 6 2 18 0 25 -3 6 -5 1 -5 -13z"/>
<path d="M3192 5000 c0 -19 2 -27 5 -17 2 9 2 25 0 35 -3 9 -5 1 -5 -18z"/>
<path d="M6822 4940 c0 -19 2 -27 5 -17 2 9 2 25 0 35 -3 9 -5 1 -5 -18z"/>
<path d="M6822 4855 c0 -16 2 -22 5 -12 2 9 2 23 0 30 -3 6 -5 -1 -5 -18z"/>
<path d="M3192 4665 c0 -16 2 -22 5 -12 2 9 2 23 0 30 -3 6 -5 -1 -5 -18z"/>
<path d="M3380 4056 c0 -2 8 -10 18 -17 15 -13 16 -12 3 4 -13 16 -21 21 -21
13z"/>
<path d="M3425 4000 c10 -11 20 -20 23 -20 3 0 -3 9 -13 20 -10 11 -20 20 -23
20 -3 0 3 -9 13 -20z"/>
<path d="M6584 3988 l-19 -23 23 19 c12 11 22 21 22 23 0 8 -8 2 -26 -19z"/>
<path d="M3490 3925 c13 -14 26 -25 28 -25 3 0 -5 11 -18 25 -13 14 -26 25
-28 25 -3 0 5 -11 18 -25z"/>
<path d="M6494 3898 l-19 -23 23 19 c12 11 22 21 22 23 0 8 -8 2 -26 -19z"/>
<path d="M3540 3886 c0 -2 8 -10 18 -17 15 -13 16 -12 3 4 -13 16 -21 21 -21
13z"/>
<path d="M4458 3593 c7 -3 16 -2 19 1 4 3 -2 6 -13 5 -11 0 -14 -3 -6 -6z"/>
<path d="M5518 3593 c6 -2 18 -2 25 0 6 3 1 5 -13 5 -14 0 -19 -2 -12 -5z"/>
<path d="M3542 3027 c-92 -35 -141 -111 -142 -217 0 -137 89 -220 234 -220 82
0 141 23 174 65 19 24 22 41 22 113 l0 85 -52 -7 c-29 -3 -74 -6 -100 -6 l-48
0 0 -35 0 -35 50 0 50 0 0 -35 c0 -28 -5 -37 -30 -50 -37 -19 -103 -19 -141 0
-94 49 -92 209 3 258 53 27 112 16 155 -29 17 -19 36 -34 42 -34 5 0 19 13 31
30 28 40 19 64 -36 96 -53 31 -158 42 -212 21z"/>
<path d="M4786 3024 c-97 -35 -150 -109 -150 -209 -1 -87 33 -150 104 -192 45
-28 64 -33 115 -33 33 0 76 4 95 10 49 13 109 66 131 114 24 54 24 148 0 202
-46 101 -180 151 -295 108z m175 -100 c95 -91 35 -254 -93 -254 -130 0 -186
166 -86 256 32 30 46 34 101 30 36 -2 55 -10 78 -32z"/>
<path d="M2923 3018 c-19 -25 -164 -390 -161 -407 2 -11 15 -17 41 -19 37 -3
38 -2 60 47 l22 51 83 0 c45 0 85 1 90 3 4 1 18 -22 31 -50 23 -51 26 -53 63
-53 24 0 41 5 44 14 5 13 -132 364 -159 407 -9 14 -23 19 -58 19 -26 0 -51 -6
-56 -12z m117 -255 c0 -2 -32 -3 -71 -3 -39 0 -69 3 -67 8 2 4 19 47 37 95
l35 88 33 -93 c18 -51 33 -94 33 -95z"/>
<path d="M4056 3015 c-3 -9 -6 -103 -6 -209 0 -206 2 -216 50 -216 39 0 50 18
50 85 0 34 2 64 5 67 3 3 19 3 35 -1 22 -4 41 -23 77 -76 46 -67 50 -70 92
-73 24 -2 48 1 53 6 7 7 -8 36 -40 84 l-49 73 38 37 c46 44 58 94 38 152 -25
70 -51 81 -203 84 -117 3 -134 1 -140 -13z m234 -80 c26 -24 26 -69 -2 -95
-16 -15 -35 -20 -75 -20 l-53 0 0 71 0 71 55 -4 c34 -3 62 -12 75 -23z"/>
<path d="M5363 3023 c-10 -3 -13 -56 -13 -213 0 -224 -1 -220 54 -220 35 0 46
20 46 81 l0 56 73 5 c128 8 181 57 174 160 -4 65 -28 100 -84 124 -31 14 -222
19 -250 7z m218 -89 c25 -23 25 -76 0 -99 -13 -11 -38 -18 -73 -19 l-53 -1 -3
74 -3 74 57 -6 c32 -3 64 -13 75 -23z"/>
<path d="M5956 3015 c-3 -9 -6 -104 -6 -210 0 -182 1 -195 19 -205 23 -12 260
-13 279 -2 7 5 15 20 17 35 7 38 -18 47 -124 47 l-91 0 -2 173 -3 172 -41 3
c-31 2 -43 -1 -48 -13z"/>
<path d="M6626 3008 c-27 -42 -167 -392 -162 -405 3 -7 21 -13 40 -13 38 0 59
21 71 73 l7 28 100 -3 100 -3 17 -45 c16 -43 19 -45 59 -48 29 -2 44 1 47 11
3 7 -32 105 -77 218 l-83 204 -52 3 c-45 3 -54 0 -67 -20z m124 -245 c0 -2
-32 -3 -71 -3 -57 0 -70 3 -66 14 3 8 20 49 38 91 l32 77 33 -88 c19 -49 34
-90 34 -91z"/>
<path d="M7138 2828 c-2 -112 1 -211 5 -220 9 -21 59 -24 75 -5 7 8 13 68 14
143 l3 129 103 -132 c56 -73 112 -137 123 -143 31 -17 62 -8 69 20 9 33 13
365 5 390 -5 16 -15 20 -46 20 l-39 0 -2 -77 c-2 -43 -2 -104 -1 -135 1 -32
-2 -58 -5 -58 -4 0 -16 13 -26 28 -11 15 -58 75 -104 135 -85 106 -86 107
-128 107 l-43 0 -3 -202z"/>
<path d="M2352 2900 c-13 -6 -29 -26 -38 -45 -28 -68 26 -132 99 -118 35 7 57
33 64 76 5 31 1 40 -25 67 -31 31 -58 36 -100 20z"/>
<path d="M7882 2900 c-12 -5 -30 -25 -39 -45 -15 -32 -16 -38 0 -69 34 -71
132 -67 156 7 26 77 -41 137 -117 107z"/>
</g>
</svg>
